# Blender v2.82 (sub 7) OBJ File: 'newCoin.blend'
# www.blender.org
mtllib newCoin.mtl
o Cube
v 0.487660 1.227841 -2.077229
v 0.482134 1.202841 -2.104646
v 0.487660 1.022775 -2.077229
v 0.482134 1.047775 -2.104646
v 0.487500 1.227841 2.077095
v 0.482134 1.202841 2.104468
v 0.487500 1.022775 2.077095
v 0.482134 1.047775 2.104468
v -0.487660 1.227841 -2.077229
v -0.482134 1.202841 -2.104646
v -0.487660 1.022775 -2.077229
v -0.482134 1.047775 -2.104646
v -0.487500 1.227841 2.077095
v -0.482134 1.202841 2.104468
v -0.487500 1.022775 2.077095
v -0.482134 1.047775 2.104468
v -1.172246 1.022775 -0.000089
v -1.200385 1.047775 -0.000089
v 1.172246 1.227841 -0.000089
v 1.200385 1.202841 -0.000089
v -1.172246 1.227841 -0.000089
v -1.200385 1.202841 -0.000089
v 1.172246 1.022775 -0.000089
v 1.200385 1.047775 -0.000089
v -1.103733 1.022775 1.083147
v -1.131994 1.047775 1.083147
v 1.103733 1.227841 1.083147
v 1.131994 1.202841 1.083147
v -1.131994 1.202841 1.083147
v -1.103733 1.227841 1.083147
v 1.131994 1.047775 1.083147
v 1.103733 1.022775 1.083147
v -1.103730 1.227841 -1.083325
v -1.131994 1.202841 -1.083325
v 1.103730 1.022775 -1.083325
v 1.131994 1.047775 -1.083325
v -1.131994 1.047775 -1.083325
v -1.103730 1.022775 -1.083325
v 1.131994 1.202841 -1.083325
v 1.103730 1.227841 -1.083325
v -0.917047 1.227841 -1.624943
v -0.945666 1.202841 -1.624943
v 0.917047 1.022775 -1.624943
v 0.945666 1.047775 -1.624943
v -0.945666 1.047775 -1.624943
v -0.917047 1.022775 -1.624943
v 0.945666 1.202841 -1.624943
v 0.917047 1.227841 -1.624943
v -0.920954 1.022775 1.619671
v -0.949568 1.047775 1.619671
v 0.920954 1.227841 1.619671
v 0.949568 1.202841 1.619671
v -0.949568 1.202841 1.619671
v -0.920954 1.227841 1.619671
v 0.949568 1.047775 1.619671
v 0.920954 1.022775 1.619671
v -0.000000 1.047775 -2.236004
v -0.000000 1.022775 -2.210093
v -0.000000 1.202841 2.235826
v -0.000000 1.227841 2.209915
v -0.000000 1.047775 2.235826
v -0.000000 1.022775 2.209915
v -0.000000 1.202841 -2.236004
v -0.000000 1.227841 -2.210093
v -0.789212 1.202841 -1.864795
v -0.760078 1.227841 -1.864795
v 0.789212 1.047775 -1.864795
v 0.760078 1.022775 -1.864795
v -0.789212 1.047775 -1.864795
v -0.760078 1.022775 -1.864795
v 0.789212 1.202841 -1.864795
v 0.760078 1.227841 -1.864795
v -0.791465 1.047775 1.862070
v -0.762337 1.022775 1.862070
v 0.791465 1.202841 1.862070
v 0.762337 1.227841 1.862070
v -0.791465 1.202841 1.862070
v -0.762337 1.227841 1.862070
v 0.791465 1.047775 1.862070
v 0.762337 1.022775 1.862070
vt 0.405478 0.125000
vt 0.594522 0.125000
vt 0.594522 0.187500
vt 0.405478 0.187500
vt 0.405478 0.000000
vt 0.594522 0.000000
vt 0.594522 0.015772
vt 0.405478 0.015772
vt 0.870400 0.734228
vt 0.869296 0.748123
vt 0.750000 0.749189
vt 0.630704 0.748123
vt 0.629600 0.734228
vt 0.750000 0.500809
vt 0.869289 0.501881
vt 0.870386 0.515625
vt 0.629614 0.515625
vt 0.630711 0.501881
vt 0.405478 0.625000
vt 0.594522 0.625000
vt 0.594522 0.687500
vt 0.405478 0.687500
vt 0.405478 0.250000
vt 0.594522 0.250000
vt 0.594522 0.375000
vt 0.405478 0.375000
vt 0.127930 0.625000
vt 0.372070 0.625000
vt 0.371879 0.687500
vt 0.128121 0.687500
vt 0.370400 0.734228
vt 0.369296 0.748123
vt 0.250000 0.749189
vt 0.130704 0.748123
vt 0.129600 0.734228
vt 0.371233 0.718456
vt 0.128767 0.718456
vt 0.627930 0.625000
vt 0.872070 0.625000
vt 0.871879 0.687500
vt 0.628121 0.687500
vt 0.628121 0.562500
vt 0.871879 0.562500
vt 0.405478 0.562500
vt 0.594522 0.562500
vt 0.405478 0.031544
vt 0.594522 0.031544
vt 0.594522 0.062500
vt 0.405478 0.062500
vt 0.128121 0.562500
vt 0.371879 0.562500
vt 0.128783 0.531250
vt 0.371217 0.531250
vt 0.370386 0.515625
vt 0.129614 0.515625
vt 0.628783 0.531250
vt 0.871217 0.531250
vt 0.871233 0.718456
vt 0.628767 0.718456
vt 0.405478 0.515625
vt 0.594522 0.515625
vt 0.594522 0.531250
vt 0.405478 0.531250
vt 0.405478 0.218750
vt 0.594522 0.218750
vt 0.594522 0.234375
vt 0.405478 0.234375
vt 0.405478 0.750000
vt 0.594522 0.750000
vt 0.594522 0.875000
vt 0.405478 0.875000
vt 0.405478 0.734228
vt 0.594522 0.734228
vt 0.250000 0.500809
vt 0.369289 0.501881
vt 0.130711 0.501881
vt 0.405478 0.718456
vt 0.594522 0.718456
vt 0.594522 0.500000
vt 0.405478 0.500000
vt 0.594522 1.000000
vt 0.405478 1.000000
vt 0.594522 0.218750
vt 0.405478 0.218750
vt 0.125000 0.750000
vt 0.125000 0.734228
vt 0.125000 0.500000
vt 0.250000 0.500000
vt 0.875000 0.750000
vt 0.750000 0.750000
vt 0.375000 0.750000
vt 0.250000 0.750000
vt 0.875000 0.500000
vt 0.875000 0.515625
vt 0.625000 0.500000
vt 0.750000 0.500000
vt 0.125000 0.625000
vt 0.125000 0.562500
vt 0.875000 0.625000
vt 0.875000 0.687500
vt 0.125000 0.687500
vt 0.875000 0.718456
vt 0.875000 0.562500
vt 0.125000 0.531250
vt 0.875000 0.531250
vt 0.125000 0.515625
vt 0.125000 0.718456
vt 0.875000 0.734228
vt 0.375000 0.500000
vt 0.625000 0.750000
vn -0.9146 -0.4042 0.0000
vn -0.9146 0.4042 0.0000
vn -0.9017 0.3948 -0.1759
vn -0.9017 -0.3948 -0.1759
vn -0.4026 -0.3477 0.8468
vn -0.4026 0.3477 0.8468
vn -0.7049 0.3451 0.6196
vn -0.7049 -0.3451 0.6196
vn -0.3232 0.8849 0.3354
vn -0.2374 0.8841 0.4024
vn 0.0000 0.9046 0.4262
vn 0.2374 0.8841 0.4024
vn 0.3232 0.8849 0.3354
vn 0.0000 0.9046 -0.4262
vn -0.2373 0.8840 -0.4028
vn -0.3231 0.8846 -0.3361
vn 0.3231 0.8846 -0.3361
vn 0.2373 0.8840 -0.4028
vn 0.9146 -0.4042 0.0000
vn 0.9146 0.4042 0.0000
vn 0.9019 0.3950 0.1744
vn 0.9019 -0.3950 0.1744
vn -0.4018 -0.3477 -0.8471
vn -0.4018 0.3477 -0.8471
vn 0.0000 0.3692 -0.9293
vn 0.0000 -0.3692 -0.9293
vn -0.3671 -0.9302 0.0000
vn 0.3671 -0.9302 0.0000
vn 0.3763 -0.9231 0.0797
vn -0.3763 -0.9231 0.0797
vn 0.3232 -0.8849 0.3354
vn 0.2374 -0.8841 0.4024
vn 0.0000 -0.9046 0.4262
vn -0.2374 -0.8841 0.4024
vn -0.3232 -0.8849 0.3354
vn 0.3581 -0.9147 0.1874
vn -0.3581 -0.9147 0.1874
vn 0.3671 0.9302 0.0000
vn -0.3671 0.9302 0.0000
vn -0.3763 0.9231 0.0797
vn 0.3763 0.9231 0.0797
vn 0.3765 0.9229 -0.0806
vn -0.3765 0.9229 -0.0806
vn 0.9017 -0.3948 -0.1759
vn 0.9017 0.3948 -0.1759
vn -0.8352 -0.3811 0.3964
vn -0.8352 0.3811 0.3964
vn -0.9019 0.3950 0.1744
vn -0.9019 -0.3950 0.1744
vn -0.3765 -0.9229 -0.0806
vn 0.3765 -0.9229 -0.0806
vn -0.3576 -0.9148 -0.1878
vn 0.3576 -0.9148 -0.1878
vn 0.3231 -0.8846 -0.3361
vn -0.3231 -0.8846 -0.3361
vn 0.3576 0.9148 -0.1878
vn -0.3576 0.9148 -0.1878
vn -0.3581 0.9147 0.1874
vn 0.3581 0.9147 0.1874
vn 0.7045 -0.3450 -0.6201
vn 0.7045 0.3450 -0.6201
vn 0.8345 0.3811 -0.3980
vn 0.8345 -0.3811 -0.3980
vn -0.8345 -0.3811 -0.3980
vn -0.8345 0.3811 -0.3980
vn -0.7045 0.3450 -0.6201
vn -0.7045 -0.3450 -0.6201
vn 0.4026 -0.3477 0.8468
vn 0.4026 0.3477 0.8468
vn 0.0000 0.3692 0.9293
vn 0.0000 -0.3692 0.9293
vn 0.7049 -0.3451 0.6196
vn 0.7049 0.3451 0.6196
vn 0.0000 -0.9046 -0.4262
vn 0.2373 -0.8840 -0.4028
vn -0.2373 -0.8840 -0.4028
vn 0.8352 -0.3811 0.3964
vn 0.8352 0.3811 0.3964
vn 0.4018 0.3477 -0.8471
vn 0.4018 -0.3477 -0.8471
usemtl Material
s 1
f 18/1/1 22/2/2 34/3/3 37/4/4
f 16/5/5 14/6/6 77/7/7 73/8/8
f 78/9/9 13/10/10 60/11/11 5/12/12 76/13/13
f 64/14/14 9/15/15 66/16/16 72/17/17 1/18/18
f 24/19/19 20/20/20 28/21/21 31/22/22
f 12/23/23 10/24/24 63/25/25 57/26/26
f 17/27/27 23/28/28 32/29/29 25/30/30
f 80/31/31 7/32/32 62/33/33 15/34/34 74/35/35
f 25/30/30 32/29/29 56/36/36 49/37/37
f 19/38/38 21/39/39 30/40/40 27/41/41
f 40/42/42 33/43/43 21/39/39 19/38/38
f 36/44/44 39/45/45 20/20/20 24/19/19
f 50/46/46 53/47/47 29/48/48 26/49/49
f 38/50/50 35/51/51 23/28/28 17/27/27
f 46/52/52 43/53/53 35/51/51 38/50/50
f 26/49/49 29/48/48 22/2/2 18/1/1
f 68/54/54 43/53/53 46/52/52 70/55/55
f 48/56/56 41/57/57 33/43/43 40/42/42
f 49/37/37 56/36/36 80/31/31 74/35/35
f 27/41/41 30/40/40 54/58/58 51/59/59
f 73/8/8 77/7/7 53/47/47 50/46/46
f 67/60/60 71/61/61 47/62/62 44/63/63
f 44/63/63 47/62/62 39/45/45 36/44/44
f 45/64/64 42/65/65 65/66/66 69/67/67
f 69/67/67 65/66/66 10/24/24 12/23/23
f 8/68/68 6/69/69 59/70/70 61/71/71
f 79/72/72 75/73/73 6/69/69 8/68/68
f 58/74/74 3/75/75 68/54/54 70/55/55 11/76/76
f 55/77/77 52/78/78 75/73/73 79/72/72
f 57/26/26 63/25/25 2/79/79 4/80/80
f 66/16/16 41/57/57 48/56/56 72/17/17
f 31/22/22 28/21/21 52/78/78 55/77/77
f 61/71/71 59/70/70 14/81/6 16/82/5
f 51/59/59 54/58/58 78/9/9 76/13/13
f 37/4/4 34/3/3 42/83/65 45/84/64
f 74/35/35 15/34/34 16/85/5 73/86/8
f 58/74/74 11/76/76 12/87/23 57/88/26
f 60/11/11 13/10/10 14/89/6 59/90/70
f 76/13/13 5/12/12 6/69/69 75/73/73
f 62/33/33 7/32/32 8/91/68 61/92/71
f 66/16/16 9/15/15 10/93/24 65/94/66
f 64/14/14 1/18/18 2/95/79 63/96/25
f 68/54/54 3/75/75 4/80/80 67/60/60
f 38/50/50 17/27/27 18/97/1 37/98/4
f 40/42/42 19/38/38 20/20/20 39/45/45
f 30/40/40 21/39/39 22/99/2 29/100/48
f 32/29/29 23/28/28 24/19/19 31/22/22
f 17/27/27 25/30/30 26/101/49 18/97/1
f 19/38/38 27/41/41 28/21/21 20/20/20
f 54/58/58 30/40/40 29/100/48 53/102/47
f 56/36/36 32/29/29 31/22/22 55/77/77
f 21/39/39 33/43/43 34/103/3 22/99/2
f 23/28/28 35/51/51 36/44/44 24/19/19
f 46/52/52 38/50/50 37/98/4 45/104/64
f 48/56/56 40/42/42 39/45/45 47/62/62
f 33/43/43 41/57/57 42/105/65 34/103/3
f 35/51/51 43/53/53 44/63/63 36/44/44
f 70/55/55 46/52/52 45/104/64 69/106/67
f 72/17/17 48/56/56 47/62/62 71/61/61
f 25/30/30 49/37/37 50/107/46 26/101/49
f 27/41/41 51/59/59 52/78/78 28/21/21
f 78/9/9 54/58/58 53/102/47 77/108/7
f 80/31/31 56/36/36 55/77/77 79/72/72
f 3/75/75 58/74/74 57/88/26 4/109/80
f 5/12/12 60/11/11 59/90/70 6/110/69
f 15/34/34 62/33/33 61/92/71 16/85/5
f 9/15/15 64/14/14 63/96/25 10/93/24
f 41/57/57 66/16/16 65/94/66 42/105/65
f 43/53/53 68/54/54 67/60/60 44/63/63
f 11/76/76 70/55/55 69/106/67 12/87/23
f 1/18/18 72/17/17 71/61/61 2/79/79
f 49/37/37 74/35/35 73/86/8 50/107/46
f 51/59/59 76/13/13 75/73/73 52/78/78
f 13/10/10 78/9/9 77/108/7 14/89/6
f 7/32/32 80/31/31 79/72/72 8/68/68
f 4/80/80 2/79/79 71/61/61 67/60/60
