# 
# Wavefront OBJ file
# Converted by the DEEP Exploration Deep Exploration 5 5.0.6.1889 Release
# Right Hemisphere, LTD
# http://www.righthemisphere.com/
# 
mtllib kunai.mtl
# object 2obtkni_body
g _obtkni_body
v 0.00000 5.70145 0.81550
v 1.18324 5.70144 0.00000
v 0.00000 15.35755 0.81550
v 1.18325 15.13494 0.00000
v 0.00000 15.35755 0.81550
v -1.18283 15.13495 0.00000
v 0.00000 5.70145 0.81550
v -1.18284 5.70145 0.00000
v 0.00000 15.35755 0.81550
v 1.18325 15.13494 0.00000
v -1.18283 15.13495 0.00000
v 0.00000 15.35755 -0.81550
v 0.00000 5.70145 -0.81550
v 0.00000 15.35755 -0.81550
v 0.00000 5.70145 -0.81550
v 0.00000 15.35755 -0.81550
v -0.01279 -4.04284 2.25305
v -3.44964 -1.04359 0.00000
v 0.00672 -20.67099 0.00000
v -0.01279 -4.04284 -2.25305
v 3.46070 -1.04208 0.00000
v 1.18324 5.70144 0.00000
v 0.00000 5.70145 0.81550
v 3.46070 -1.04208 0.00000
v -0.01279 -4.04284 2.25305
v -3.44964 -1.04359 0.00000
v -1.18284 5.70145 0.00000
v 0.00000 5.70145 -0.81550
v -0.01279 -4.04284 -2.25305
v 0.00000 20.19354 0.00000
v 0.00000 19.45058 0.85337
v 1.45020 18.84990 0.85337
v 0.92485 18.32456 0.00000
v 1.30793 17.39972 0.00000
v 1.45020 18.84990 -0.85337
v 2.05088 17.39972 -0.85337
v 1.97554 19.37524 0.00000
v 2.79383 17.39972 0.00000
v 2.05088 17.39972 0.85337
v 1.45019 15.94953 0.85337
v 0.92485 16.47487 0.00000
v 0.00000 16.12304 0.00000
v 1.45019 15.94953 -0.85337
v 0.00000 15.34885 -0.85337
v 1.97554 15.42418 0.00000
v 0.00000 14.60589 0.00000
v 0.00000 15.34885 0.85337
v -1.45017 15.94953 0.85337
v -0.92483 16.47488 0.00000
v -1.30791 17.39972 0.00000
v -1.45017 15.94953 -0.85337
v -2.05086 17.39972 -0.85337
v -1.97552 15.42418 0.00000
v -2.79381 17.39972 0.00000
v -2.05086 17.39972 0.85337
v -1.45017 18.84990 0.85337
v -0.92483 18.32456 0.00000
v 0.00000 18.70764 0.00000
v -1.45017 18.84990 -0.85337
v 0.00000 19.45058 -0.85337
v -1.97552 19.37524 0.00000
v 0.00000 20.19354 0.00000
v 0.00000 19.45058 0.85337
v 0.00000 18.70764 0.00000
v 0.00000 19.45058 -0.85337
# 65 verticies
vt 0.98633 -0.99268
vt 0.98633 -0.82129
vt 0.01184 -0.99268
vt 0.01184 -0.82129
vt 0.88135 -0.62060
vt 0.88135 -0.73096
vt 0.01080 -0.40405
vt 0.01080 -0.02698
vt 0.98340 -0.40405
vt 0.01080 -0.76221
vt 0.55273 -0.23108
vt 0.55273 -0.39136
vt 0.01080 -0.39136
vt 0.55273 -0.55371
vt 0.04520 -0.42725
vt 0.04520 -0.50977
vt 0.27637 -0.50977
vt 0.27637 -0.59228
vt 0.50732 -0.59228
vt 0.50732 -0.50977
vt 0.27637 -0.42725
vt 0.50732 -0.42725
vt 0.73877 -0.50977
vt 0.73877 -0.59228
vt 0.97022 -0.59228
vt 0.97022 -0.50977
vt 0.73877 -0.42725
vt 0.97022 -0.42725
vt 0.04517 -0.59228
vt 0.04517 -0.50977
vt 0.04517 -0.42725
vt 0.04520 -0.59228
# 32 texture verticies
vn 0.00000 0.10429 0.99455
vn 0.98409 0.17765 0.00000
vn 0.00000 0.70735 0.70686
vn 0.85320 0.52159 0.00000
vn -0.85320 0.52159 0.00000
vn -0.98424 0.17682 0.00000
vn 0.00000 0.70735 -0.70686
vn 0.00000 0.10429 -0.99455
vn -0.00302 -0.04680 0.99890
vn -0.99218 0.12482 0.00000
vn 0.00000 -1.00000 0.00000
vn -0.00302 -0.04680 -0.99890
vn 0.99224 0.12434 0.00000
vn 0.00000 1.00000 0.00000
vn 0.00000 0.18255 0.98320
vn 0.12907 0.12907 0.98320
vn -0.70711 -0.70711 0.00000
vn -1.00000 0.00000 0.00000
vn 0.12907 0.12907 -0.98320
vn 0.18255 0.00000 -0.98320
vn 0.70711 0.70711 0.00000
vn 1.00000 0.00000 0.00000
vn 0.18255 0.00000 0.98320
vn 0.12907 -0.12907 0.98320
vn -0.70711 0.70711 0.00000
vn 0.12907 -0.12907 -0.98320
vn 0.00000 -0.18255 -0.98320
vn 0.70711 -0.70711 0.00000
vn 0.00000 -0.18255 0.98320
vn -0.12907 -0.12907 0.98320
vn -0.12907 -0.12907 -0.98320
vn -0.18255 0.00000 -0.98320
vn -0.18255 0.00000 0.98320
vn -0.12907 0.12907 0.98320
vn -0.12907 0.12907 -0.98320
vn 0.00000 0.18255 -0.98320
# 36 normals
usemtl C__Users_Loris_Desktop_KUNAI___
f  1/1/1 2/2/2 3/3/3
f  4/4/4 3/3/3 2/2/2
f  5/4/3 6/3/5 7/2/1
f  8/1/6 7/2/1 6/3/5
f  9/5/3 10/6/4 11/5/5
f  12/5/7 11/5/5 10/6/4
f  13/1/8 14/3/7 2/2/2
f  4/4/4 2/2/2 14/3/7
f  8/1/6 6/3/5 15/2/8
f  16/4/7 15/2/8 6/3/5
f  17/7/9 18/8/10 19/9/11
f  20/7/12 19/9/11 18/8/10
f  19/9/11 20/7/12 21/10/13
f  22/11/2 23/12/1 24/8/13
f  25/13/9 24/8/13 23/12/1
f  25/13/9 23/12/1 26/10/10
f  27/14/6 26/10/10 23/12/1
f  26/10/10 27/14/6 28/12/8
f  22/11/2 24/8/13 28/12/8
f  29/13/12 28/12/8 24/8/13
f  28/12/8 29/13/12 26/10/10
f  30/15/14 31/16/15 32/17/16
f  33/18/17 32/17/16 31/16/15
f  32/17/16 33/18/17 34/19/18
f  35/17/19 34/19/18 33/18/17
f  34/19/18 35/17/19 36/20/20
f  37/21/21 36/20/20 35/17/19
f  36/20/20 37/21/21 38/22/22
f  39/20/23 38/22/22 37/21/21
f  38/22/22 39/20/23 40/23/24
f  41/24/25 40/23/24 39/20/23
f  40/23/24 41/24/25 42/25/14
f  43/23/26 42/25/14 41/24/25
f  42/25/14 43/23/26 44/26/27
f  45/27/28 44/26/27 43/23/26
f  44/26/27 45/27/28 46/28/11
f  47/26/29 46/28/11 45/27/28
f  46/28/11 47/26/29 48/23/30
f  49/24/21 48/23/30 47/26/29
f  48/23/30 49/24/21 50/19/22
f  51/23/31 50/19/22 49/24/21
f  50/19/22 51/23/31 52/20/32
f  53/27/17 52/20/32 51/23/31
f  52/20/32 53/27/17 54/22/18
f  55/20/33 54/22/18 53/27/17
f  54/22/18 55/20/33 56/17/34
f  57/18/28 56/17/34 55/20/33
f  56/17/34 57/18/28 58/29/11
f  59/17/35 58/29/11 57/18/28
f  58/29/11 59/17/35 60/30/36
f  61/21/25 60/30/36 59/17/35
f  60/30/36 61/21/25 62/31/14
f  63/30/15 62/31/14 61/21/25
f  31/16/15 64/32/11 33/18/17
f  65/16/36 33/18/17 64/32/11
f  33/18/17 65/16/36 35/17/19
f  30/15/14 35/17/19 65/16/36
f  35/17/19 30/15/14 37/21/21
f  32/17/16 37/21/21 30/15/14
f  37/21/21 32/17/16 39/20/23
f  34/19/18 39/20/23 32/17/16
f  39/20/23 34/19/18 41/24/25
f  36/20/20 41/24/25 34/19/18
f  41/24/25 36/20/20 43/23/26
f  38/22/22 43/23/26 36/20/20
f  43/23/26 38/22/22 45/27/28
f  40/23/24 45/27/28 38/22/22
f  45/27/28 40/23/24 47/26/29
f  42/25/14 47/26/29 40/23/24
f  47/26/29 42/25/14 49/24/21
f  44/26/27 49/24/21 42/25/14
f  49/24/21 44/26/27 51/23/31
f  46/28/11 51/23/31 44/26/27
f  51/23/31 46/28/11 53/27/17
f  48/23/30 53/27/17 46/28/11
f  53/27/17 48/23/30 55/20/33
f  50/19/22 55/20/33 48/23/30
f  55/20/33 50/19/22 57/18/28
f  52/20/32 57/18/28 50/19/22
f  57/18/28 52/20/32 59/17/35
f  54/22/18 59/17/35 52/20/32
f  59/17/35 54/22/18 61/21/25
f  56/17/34 61/21/25 54/22/18
f  61/21/25 56/17/34 63/30/15
f  58/29/11 63/30/15 56/17/34
f  17/7/9 19/9/11 21/10/13
